<svg width="14" height="14" viewBox="0 0 14 14" fill="none" xmlns="http://www.w3.org/2000/svg">
<path fill-rule="evenodd" clip-rule="evenodd" d="M6.875 0C3.07812 0 0 3.07812 0 6.875C0 10.6719 3.07812 13.75 6.875 13.75C10.6719 13.75 13.75 10.6719 13.75 6.875C13.75 3.07812 10.6719 0 6.875 0ZM4.375 6.25C4.20924 6.25 4.05027 6.31585 3.93306 6.43306C3.81585 6.55027 3.75 6.70924 3.75 6.875C3.75 7.04076 3.81585 7.19973 3.93306 7.31694C4.05027 7.43415 4.20924 7.5 4.375 7.5H9.375C9.54076 7.5 9.69973 7.43415 9.81694 7.31694C9.93415 7.19973 10 7.04076 10 6.875C10 6.70924 9.93415 6.55027 9.81694 6.43306C9.69973 6.31585 9.54076 6.25 9.375 6.25H4.375Z" fill="white"/>
</svg>
